# xmcd
#
# Track frame offsets:
#	150
#	17817
#	34609
#	50659
#	69971
#	86446
#	106395
#
# Disc length: 1617 seconds
#
# Revision: 0
# Processed by: cddbd v1.5.2PL0 Copyright (c) Steve Scherf et al.
# Submitted via: EasyCDDAExtractor 16.0.6.1
#
DISCID=50064f07
DTITLE=Rinaldo e Samuel - Mãos Calejadas - Canção Nova Sertaneja
DYEAR=2011
DGENRE=
TTITLE0=Com Deus eu posso sim
TTITLE1=Dê uma chance para o amor
TTITLE2=Deus, visita o meu amor
TTITLE3=Sagrado Coração
TTITLE4=Tô feliz na Canção Nova
TTITLE5=Se errei
TTITLE6=Vou assumir a minha cruz
EXTD=
EXTT0=
EXTT1=
EXTT2=
EXTT3=
EXTT4=
EXTT5=
EXTT6=
PLAYORDER=
